<svg xmlns="http://www.w3.org/2000/svg" version="1.1" xmlns:xlink="http://www.w3.org/1999/xlink" xmlns:svgjs="http://svgjs.com/svgjs" width="1440" height="560" preserveAspectRatio="none" viewBox="0 0 1440 560"><g mask="url(&quot;#SvgjsMask1003&quot;)" fill="none"><rect width="1440" height="560" x="0" y="0" fill="rgba(252, 229, 184, 1)"></rect><path d="M0,449.497C89.022,456.96,188.515,457.665,258.198,401.764C326.763,346.76,323.616,244.353,357.054,163.061C388.897,85.647,456.334,18.762,450.075,-64.711C443.713,-149.557,369.148,-208.58,323.791,-280.566C269.062,-367.426,254.591,-502.653,156.03,-531.388C57.426,-560.136,-26.197,-450.979,-120.408,-410.072C-200.557,-375.271,-302.034,-377.231,-356.452,-308.867C-410.51,-240.954,-382.247,-142.411,-400.938,-57.646C-421.624,36.166,-508.108,126.538,-472.099,215.6C-436.301,304.139,-317.374,318.29,-231.799,360.687C-156.123,398.18,-84.159,442.442,0,449.497" fill="#f9c664"></path><path d="M1440 882.739C1507.214 881.299 1577.466 897.794 1636.927 866.424 1698.377 834.005 1745.96 775.669 1767.901 709.7470000000001 1788.893 646.675 1770.045 579.356 1753.937 514.863 1739.231 455.981 1720.632 397.052 1678.817 353.06399999999996 1638.027 310.154 1580.658 291.058 1524.212 273.199 1466.676 254.995 1406.233 230.81900000000002 1348.557 248.574 1291.095 266.263 1261.198 325.844 1217.855 367.51099999999997 1169.338 414.152 1097.975 443.58 1078.646 508.045 1058.766 574.348 1088.2269999999999 644.569 1115.738 708.086 1143.68 772.597 1175.682 841.639 1237.577 874.977 1298.255 907.659 1371.096 884.2149999999999 1440 882.739" fill="#ffffff"></path></g><defs><mask id="SvgjsMask1003"><rect width="1440" height="560" fill="#ffffff"></rect></mask></defs></svg>