<svg xmlns="http://www.w3.org/2000/svg" version="1.1" xmlns:xlink="http://www.w3.org/1999/xlink" xmlns:svgjs="http://svgjs.com/svgjs" width="1440" height="560" preserveAspectRatio="none" viewBox="0 0 1440 560"><g mask="url(&quot;#SvgjsMask1045&quot;)" fill="none"><rect width="1440" height="560" x="0" y="0" fill="rgba(250, 250, 250, 1)"></rect><path d="M1159 376L1014 521" stroke-width="6" stroke="url(#SvgjsLinearGradient1046)" stroke-linecap="round" class="TopRight"></path><path d="M472 392L738 126" stroke-width="6" stroke="url(#SvgjsLinearGradient1046)" stroke-linecap="round" class="TopRight"></path><path d="M1220 339L1625 -66" stroke-width="6" stroke="url(#SvgjsLinearGradient1047)" stroke-linecap="round" class="BottomLeft"></path><path d="M602 6L1002 -394" stroke-width="8" stroke="url(#SvgjsLinearGradient1047)" stroke-linecap="round" class="BottomLeft"></path><path d="M65 67L477 -345" stroke-width="10" stroke="url(#SvgjsLinearGradient1047)" stroke-linecap="round" class="BottomLeft"></path><path d="M1073 539L1280 332" stroke-width="8" stroke="url(#SvgjsLinearGradient1046)" stroke-linecap="round" class="TopRight"></path><path d="M34 495L-376 905" stroke-width="10" stroke="url(#SvgjsLinearGradient1047)" stroke-linecap="round" class="BottomLeft"></path><path d="M233 305L15 523" stroke-width="8" stroke="url(#SvgjsLinearGradient1046)" stroke-linecap="round" class="TopRight"></path><path d="M704 253L466 491" stroke-width="6" stroke="url(#SvgjsLinearGradient1046)" stroke-linecap="round" class="TopRight"></path><path d="M1123 191L820 494" stroke-width="8" stroke="url(#SvgjsLinearGradient1046)" stroke-linecap="round" class="TopRight"></path><path d="M1256 14L1547 -277" stroke-width="10" stroke="url(#SvgjsLinearGradient1046)" stroke-linecap="round" class="TopRight"></path><path d="M958 537L1321 174" stroke-width="6" stroke="url(#SvgjsLinearGradient1046)" stroke-linecap="round" class="TopRight"></path><path d="M714 68L939 -157" stroke-width="8" stroke="url(#SvgjsLinearGradient1047)" stroke-linecap="round" class="BottomLeft"></path><path d="M1432 540L1235 737" stroke-width="8" stroke="url(#SvgjsLinearGradient1047)" stroke-linecap="round" class="BottomLeft"></path><path d="M844 279L568 555" stroke-width="8" stroke="url(#SvgjsLinearGradient1047)" stroke-linecap="round" class="BottomLeft"></path><path d="M772 106L983 -105" stroke-width="8" stroke="url(#SvgjsLinearGradient1046)" stroke-linecap="round" class="TopRight"></path><path d="M1121 43L744 420" stroke-width="10" stroke="url(#SvgjsLinearGradient1047)" stroke-linecap="round" class="BottomLeft"></path><path d="M636 444L886 194" stroke-width="6" stroke="url(#SvgjsLinearGradient1046)" stroke-linecap="round" class="TopRight"></path><path d="M987 260L1257 -10" stroke-width="8" stroke="url(#SvgjsLinearGradient1046)" stroke-linecap="round" class="TopRight"></path><path d="M1112 118L1311 -81" stroke-width="10" stroke="url(#SvgjsLinearGradient1046)" stroke-linecap="round" class="TopRight"></path><path d="M1110 111L1338 -117" stroke-width="8" stroke="url(#SvgjsLinearGradient1046)" stroke-linecap="round" class="TopRight"></path><path d="M900 196L1112 -16" stroke-width="6" stroke="url(#SvgjsLinearGradient1046)" stroke-linecap="round" class="TopRight"></path><path d="M971 519L807 683" stroke-width="6" stroke="url(#SvgjsLinearGradient1046)" stroke-linecap="round" class="TopRight"></path><path d="M833 174L429 578" stroke-width="8" stroke="url(#SvgjsLinearGradient1047)" stroke-linecap="round" class="BottomLeft"></path><path d="M450 206L75 581" stroke-width="8" stroke="url(#SvgjsLinearGradient1046)" stroke-linecap="round" class="TopRight"></path><path d="M446 429L33 842" stroke-width="10" stroke="url(#SvgjsLinearGradient1047)" stroke-linecap="round" class="BottomLeft"></path><path d="M750 363L450 663" stroke-width="8" stroke="url(#SvgjsLinearGradient1047)" stroke-linecap="round" class="BottomLeft"></path><path d="M604 529L787 346" stroke-width="8" stroke="url(#SvgjsLinearGradient1046)" stroke-linecap="round" class="TopRight"></path><path d="M1414 268L1097 585" stroke-width="6" stroke="url(#SvgjsLinearGradient1047)" stroke-linecap="round" class="BottomLeft"></path><path d="M1306 112L1594 -176" stroke-width="6" stroke="url(#SvgjsLinearGradient1047)" stroke-linecap="round" class="BottomLeft"></path><path d="M1184 271L983 472" stroke-width="10" stroke="url(#SvgjsLinearGradient1046)" stroke-linecap="round" class="TopRight"></path><path d="M445 32L101 376" stroke-width="10" stroke="url(#SvgjsLinearGradient1046)" stroke-linecap="round" class="TopRight"></path><path d="M811 149L417 543" stroke-width="6" stroke="url(#SvgjsLinearGradient1046)" stroke-linecap="round" class="TopRight"></path><path d="M1323 98L971 450" stroke-width="6" stroke="url(#SvgjsLinearGradient1047)" stroke-linecap="round" class="BottomLeft"></path><path d="M992 179L1350 -179" stroke-width="6" stroke="url(#SvgjsLinearGradient1046)" stroke-linecap="round" class="TopRight"></path><path d="M83 457L257 283" stroke-width="10" stroke="url(#SvgjsLinearGradient1046)" stroke-linecap="round" class="TopRight"></path><path d="M1323 150L1656 -183" stroke-width="8" stroke="url(#SvgjsLinearGradient1046)" stroke-linecap="round" class="TopRight"></path><path d="M1018 355L1397 -24" stroke-width="10" stroke="url(#SvgjsLinearGradient1046)" stroke-linecap="round" class="TopRight"></path><path d="M1380 82L1784 -322" stroke-width="6" stroke="url(#SvgjsLinearGradient1046)" stroke-linecap="round" class="TopRight"></path></g><defs><mask id="SvgjsMask1045"><rect width="1440" height="560" fill="#ffffff"></rect></mask><linearGradient x1="0%" y1="100%" x2="100%" y2="0%" id="SvgjsLinearGradient1046"><stop stop-color="rgba(252, 229, 184, 0)" offset="0"></stop><stop stop-color="rgba(252, 229, 184, 1)" offset="1"></stop></linearGradient><linearGradient x1="100%" y1="0%" x2="0%" y2="100%" id="SvgjsLinearGradient1047"><stop stop-color="rgba(252, 229, 184, 0)" offset="0"></stop><stop stop-color="rgba(252, 229, 184, 1)" offset="1"></stop></linearGradient></defs></svg>