<svg xmlns="http://www.w3.org/2000/svg" version="1.1" xmlns:xlink="http://www.w3.org/1999/xlink" xmlns:svgjs="http://svgjs.com/svgjs" width="1440" height="560" preserveAspectRatio="none" viewBox="0 0 1440 560"><g mask="url(&quot;#SvgjsMask1023&quot;)" fill="none"><rect width="1440" height="560" x="0" y="0" fill="rgba(252, 229, 184, 1)"></rect><path d="M0,502.775C125.402,514.275,258.742,635.534,364.49,567.158C470.328,498.724,399.432,320.888,455.712,208.117C515.26,88.799,694.374,33.014,697.596,-100.299C700.738,-230.292,569.028,-322.807,470.599,-407.776C382.52,-483.811,273.858,-520.526,164.562,-560.445C47.549,-603.183,-70.538,-682.337,-190.649,-649.29C-311.007,-616.175,-381.26,-494.375,-451.251,-391.011C-514.602,-297.454,-551.033,-193.133,-574.384,-82.584C-599.19,34.854,-637.968,159.438,-590.836,269.826C-543.396,380.935,-436.313,459.717,-323.92,504.03C-221.395,544.453,-109.746,492.711,0,502.775" fill="#fad68e"></path><path d="M1440 1027.858C1526.5720000000001 1018.3109999999999 1568.451 918.0550000000001 1631.471 857.935 1681.381 810.321 1736.988 771.097 1771.655 711.462 1809.093 647.062 1845.565 576.885 1837.93 502.786 1830.185 427.619 1779.233 366.03700000000003 1730.144 308.589 1680.767 250.805 1629.578 181.11700000000002 1554.271 170.827 1479.865 160.66000000000003 1424.658 242.317 1350.966 256.778 1265.466 273.556 1153.391 196.389 1094.902 260.971 1036.9279999999999 324.985 1112.845 427.544 1118.248 513.739 1122.317 578.665 1106.392 641.925 1122.726 704.894 1141.583 777.591 1166.688 849.809 1219.32 903.385 1279.729 964.877 1354.319 1037.306 1440 1027.858" fill="#fef4e2"></path></g><defs><mask id="SvgjsMask1023"><rect width="1440" height="560" fill="#ffffff"></rect></mask></defs></svg>